<svg id="Capa_1" enable-background="new 0 0 512 512" height="512" viewBox="0 0 512 512" width="512" xmlns="http://www.w3.org/2000/svg"><g><path d="m402 426c-16.753 0-31.124 10.356-37.071 25h-34.929v30h34.929c5.947 14.644 20.318 25 37.071 25 22.056 0 40-17.944 40-40s-17.944-40-40-40z"/><path d="m472 341c-6.575 0-12.778 1.604-18.256 4.427l-37.141-30.951c-2.696-2.246-6.094-3.476-9.603-3.476h-77v30h71.569l32.565 27.138c-1.376 4.039-2.134 8.362-2.134 12.862 0 22.056 17.944 40 40 40s40-17.944 40-40-17.944-40-40-40z"/><path d="m472 216c-16.753 0-31.124 10.356-37.071 25h-104.929v30h104.929c5.947 14.644 20.318 25 37.071 25 22.056 0 40-17.944 40-40s-17.944-40-40-40z"/><path d="m416.603 197.523 37.141-30.951c5.478 2.824 11.681 4.428 18.256 4.428 22.056 0 40-17.944 40-40s-17.944-40-40-40-40 17.944-40 40c0 4.5.758 8.823 2.134 12.862l-32.565 27.138h-71.569v30h77c3.509 0 6.907-1.23 9.603-3.477z"/><path d="m402 86c22.056 0 40-17.944 40-40s-17.944-40-40-40c-16.753 0-31.124 10.356-37.071 25h-34.929v30h34.929c5.947 14.644 20.318 25 37.071 25z"/><path d="m150 256c0 57.897 47.103 105 105 105 16.095 0 31.353-3.645 45-10.145v-189.71c-13.647-6.5-28.905-10.145-45-10.145-57.897 0-105 47.103-105 105z"/><path d="m285 1h-60c-8.284 0-15 6.716-15 15v19.525c-28.147 5.734-55.083 16.893-79.076 32.759l-13.81-13.809c-5.858-5.858-15.355-5.858-21.213 0l-42.426 42.426c-5.858 5.857-5.858 15.355 0 21.213l13.809 13.81c-15.866 23.993-27.025 50.929-32.759 79.076h-19.525c-8.284 0-15 6.716-15 15v60c0 8.284 6.716 15 15 15h19.525c5.734 28.147 16.893 55.083 32.759 79.077l-13.81 13.81c-2.813 2.813-4.393 6.628-4.393 10.606 0 3.978 1.58 7.792 4.393 10.605l42.427 42.427c5.858 5.858 15.355 5.858 21.213 0l13.81-13.809c23.993 15.866 50.929 27.024 79.076 32.759v19.525c0 8.284 6.716 15 15 15h60c8.284 0 15-6.716 15-15v-112.722c-14.082 4.994-29.227 7.722-45 7.722-74.439 0-135-60.561-135-135s60.561-135 135-135c15.773 0 30.918 2.728 45 7.722v-112.722c0-8.284-6.716-15-15-15z"/></g></svg>