<?xml version="1.0" standalone="no"?><svg xmlns="http://www.w3.org/2000/svg" viewBox="0 0 1440 320"><path fill="#5F23E4" fill-opacity="1" d="M0,256L34.3,234.7C68.6,213,137,171,206,176C274.3,181,343,235,411,218.7C480,203,549,117,617,90.7C685.7,64,754,96,823,128C891.4,160,960,192,1029,181.3C1097.1,171,1166,117,1234,122.7C1302.9,128,1371,192,1406,224L1440,256L1440,320L1405.7,320C1371.4,320,1303,320,1234,320C1165.7,320,1097,320,1029,320C960,320,891,320,823,320C754.3,320,686,320,617,320C548.6,320,480,320,411,320C342.9,320,274,320,206,320C137.1,320,69,320,34,320L0,320Z"></path></svg>