<?xml version="1.0" standalone="no"?><svg xmlns="http://www.w3.org/2000/svg" viewBox="0 0 1440 320"><path fill="#A806D3" fill-opacity="1" d="M0,256L30,218.7C60,181,120,107,180,117.3C240,128,300,224,360,245.3C420,267,480,213,540,186.7C600,160,660,160,720,170.7C780,181,840,203,900,224C960,245,1020,267,1080,272C1140,277,1200,267,1260,240C1320,213,1380,171,1410,149.3L1440,128L1440,320L1410,320C1380,320,1320,320,1260,320C1200,320,1140,320,1080,320C1020,320,960,320,900,320C840,320,780,320,720,320C660,320,600,320,540,320C480,320,420,320,360,320C300,320,240,320,180,320C120,320,60,320,30,320L0,320Z"></path></svg>